<?xml version="1.0" encoding="utf-8"?>
<!-- Generator: Adobe Illustrator 21.0.0, SVG Export Plug-In . SVG Version: 6.00 Build 0)  -->
<svg version="1.1" id="Layer_1" xmlns="http://www.w3.org/2000/svg" xmlns:xlink="http://www.w3.org/1999/xlink" x="0px" y="0px"
	 viewBox="0 0 612 792" style="enable-background:new 0 0 612 792;" xml:space="preserve">
<style type="text/css">
	.st0{clip-path:url(#SVGID_2_);fill:transparent;}
	.st1{clip-path:url(#SVGID_2_);fill:#2BB463;}
</style>
<g>
	<defs>
		<rect id="SVGID_1_" x="275" y="360" width="400" height="400"/>
	</defs>
	<clipPath id="SVGID_2_">
		<use xlink:href="#SVGID_1_"  style="overflow:visible;"/>
	</clipPath>
	<path class="st0" fill="transparent" d="M276.4,431.2c0,0.2,0.2,0.4,0.4,0.4h58.7c0.2,0,0.4-0.2,0.4-0.4v-50.7h-59.5V431.2z M336.6,379
		c0.2,0,0.4,0.1,0.5,0.2c0.1,0.1,0.2,0.3,0.2,0.5v51.4c0,1-0.8,1.8-1.8,1.8h-58.7c-1,0-1.8-0.8-1.8-1.8v-51.4c0-0.2,0.1-0.4,0.2-0.5
		c0.1-0.1,0.3-0.2,0.5-0.2H336.6z"/>
	<path class="st0" fill="transparent" d="M322.9,362.1c-0.4,0.4-0.6,1-0.6,1.7v6.8c0,0.7,0.3,1.3,0.6,1.7c0.4,0.4,0.9,0.7,1.5,0.7
		c0.6,0,1.1-0.2,1.5-0.7c0.4-0.4,0.6-1.1,0.6-1.7v-6.8c0-0.7-0.3-1.3-0.6-1.7c-0.4-0.4-0.9-0.7-1.5-0.7S323.3,361.6,322.9,362.1
		 M320.9,370.6v-6.8c0-2.1,1.5-3.8,3.5-3.8c2,0,3.5,1.8,3.5,3.8v6.8c0,2.1-1.5,3.8-3.5,3.8C322.4,374.4,320.9,372.6,320.9,370.6 M286.5,362.1c-0.4,0.4-0.6,1-0.6,1.7v6.8c0,0.7,0.3,1.3,0.6,1.7c0.4,0.4,0.9,0.7,1.5,0.7
		c0.6,0,1.1-0.3,1.5-0.7c0.4-0.4,0.6-1,0.6-1.7v-6.8c0-0.7-0.3-1.3-0.6-1.7s-0.9-0.7-1.5-0.7C287.4,361.4,286.9,361.6,286.5,362.1
		 M284.4,370.6v-6.8c0-2.1,1.5-3.8,3.5-3.8c2,0,3.5,1.8,3.5,3.8v6.8c0,2.1-1.5,3.8-3.5,3.8C285.9,374.4,284.4,372.6,284.4,370.6 M290.8,366.5c-0.4,0-0.7-0.3-0.7-0.7c0-0.4,0.3-0.7,0.7-0.7h30.8c0.4,0,0.7,0.3,0.7,0.7c0,0.4-0.3,0.7-0.7,0.7
		H290.8z M275.7,380.5c-0.2,0-0.4-0.1-0.5-0.2c-0.1-0.1-0.2-0.3-0.2-0.5v-12.9c0-1,0.8-1.8,1.8-1.8h8.3
		c0.4,0,0.7,0.3,0.7,0.7c0,0.4-0.3,0.7-0.7,0.7h-8.3c-0.2,0-0.4,0.2-0.4,0.4l0,12.2h59.5v-12.2c0-0.2-0.2-0.4-0.4-0.4h-8.3
		c-0.4,0-0.7-0.3-0.7-0.7c0-0.4,0.3-0.7,0.7-0.7h8.3c1,0,1.8,0.8,1.8,1.8v12.9c0,0.2-0.1,0.4-0.2,0.5c-0.1,0.1-0.3,0.2-0.5,0.2
		H275.7z"/>
	<path class="st1" d="M295.9,389.9v6.5c0,0.2,0.2,0.5,0.5,0.5h6.5c0.2,0,0.4-0.2,0.5-0.5v-6.5c0-0.2-0.2-0.4-0.5-0.4h-6.5
		C296.1,389.4,295.9,389.6,295.9,389.9 M296.3,398.3c-1,0-1.9-0.8-1.9-1.9v-6.5c0-1,0.8-1.9,1.9-1.9h6.5c1,0,1.9,0.8,1.9,1.9v6.5
		c0,1-0.8,1.9-1.9,1.9H296.3z"/>
	<path class="st1" d="M309.1,389.9v6.5c0,0.2,0.2,0.5,0.5,0.5h6.5c0.2,0,0.5-0.2,0.5-0.5v-6.5c0-0.2-0.2-0.4-0.5-0.4l-6.5,0
		C309.3,389.4,309.1,389.6,309.1,389.9 M309.5,398.3c-1,0-1.9-0.8-1.9-1.9l0-6.5c0-1,0.8-1.9,1.9-1.9h6.5c1,0,1.9,0.8,1.9,1.9v6.5
		c0,1-0.8,1.9-1.9,1.9H309.5z"/>
	<path class="st1" d="M322.3,389.9v6.5c0,0.2,0.2,0.5,0.5,0.5h6.5c0.2,0,0.5-0.2,0.5-0.5v-6.5c0-0.2-0.2-0.4-0.5-0.4h-6.5
		C322.5,389.4,322.3,389.6,322.3,389.9 M322.7,398.3c-1,0-1.9-0.8-1.9-1.9v-6.5c0-1,0.8-1.9,1.9-1.9h6.5c1,0,1.9,0.8,1.9,1.9v6.5
		c0,1-0.8,1.9-1.9,1.9H322.7z"/>
	<path class="st1" d="M295.9,402.6v6.5c0,0.2,0.2,0.5,0.5,0.5h6.5c0.2,0,0.4-0.2,0.5-0.5v-6.5c0-0.2-0.2-0.4-0.5-0.4h-6.5
		C296.1,402.1,295.9,402.3,295.9,402.6 M296.3,411c-1,0-1.9-0.8-1.9-1.9v-6.5c0-1,0.8-1.9,1.9-1.9h6.5c1,0,1.9,0.8,1.9,1.9v6.5
		c0,1-0.8,1.9-1.9,1.9L296.3,411z"/>
	<path class="st1" d="M322.3,402.6v6.5c0,0.2,0.2,0.5,0.5,0.5h6.5c0.2,0,0.5-0.2,0.5-0.5v-6.5c0-0.2-0.2-0.5-0.5-0.5h-6.5
		C322.5,402.1,322.3,402.3,322.3,402.6 M322.7,411c-1,0-1.9-0.8-1.9-1.9v-6.5c0-1,0.8-1.9,1.9-1.9h6.5c1,0,1.9,0.8,1.9,1.9v6.5
		c0,1-0.8,1.9-1.9,1.9H322.7z"/>
	<path class="st1" d="M309.1,402.6v6.5c0,0.2,0.2,0.5,0.5,0.5h6.5c0.2,0,0.5-0.2,0.5-0.5v-6.5c0-0.2-0.2-0.4-0.5-0.4h-6.5
		C309.3,402.1,309.1,402.3,309.1,402.6 M309.5,411c-1,0-1.9-0.8-1.9-1.9l0-6.5c0-1,0.8-1.9,1.9-1.9h6.5c1,0,1.9,0.8,1.9,1.9v6.5
		c0,1-0.8,1.9-1.9,1.9L309.5,411z"/>
	<path class="st1" d="M295.9,415.3v6.5c0,0.2,0.2,0.4,0.5,0.5h6.5c0.2,0,0.4-0.2,0.5-0.5v-6.5c0-0.2-0.2-0.5-0.5-0.5h-6.5
		C296.1,414.8,295.9,415,295.9,415.3 M296.3,423.7c-1,0-1.9-0.8-1.9-1.9v-6.5c0-1,0.8-1.9,1.9-1.9h6.5c1,0,1.9,0.8,1.9,1.9v6.5
		c0,1-0.8,1.9-1.9,1.9H296.3z"/>
	<path class="st1" d="M309.1,415.3v6.5c0,0.2,0.2,0.4,0.5,0.4h6.5c0.2,0,0.5-0.2,0.5-0.4v-6.5c0-0.2-0.2-0.5-0.5-0.5h-6.5
		C309.3,414.8,309.1,415,309.1,415.3 M309.5,423.7c-1,0-1.9-0.8-1.9-1.9l0-6.5c0-1,0.8-1.9,1.9-1.9h6.5c1,0,1.9,0.8,1.9,1.9v6.5
		c0,1-0.8,1.9-1.9,1.9H309.5z"/>
	<path class="st1" d="M282.6,402.6v6.5c0,0.2,0.2,0.5,0.5,0.5h6.5c0.2,0,0.5-0.2,0.5-0.5c0,0,0-6.5,0-6.5c0-0.2-0.2-0.5-0.5-0.5
		h-6.5C282.9,402.1,282.6,402.3,282.6,402.6 M283.1,411c-1,0-1.9-0.8-1.9-1.9v-6.5c0-1,0.8-1.9,1.9-1.9h6.5c1,0,1.9,0.8,1.9,1.9v6.5
		c0,1-0.8,1.9-1.9,1.9H283.1z"/>
	<path class="st1" d="M282.6,415.3v6.5c0,0.2,0.2,0.4,0.5,0.4h6.5c0.2,0,0.5-0.2,0.5-0.4l0-6.5c0-0.2-0.2-0.5-0.5-0.5h-6.5
		C282.9,414.8,282.6,415,282.6,415.3 M283.1,423.7c-1,0-1.9-0.8-1.9-1.9v-6.5c0-1,0.8-1.9,1.9-1.9h6.5c1,0,1.9,0.8,1.9,1.9v6.5
		c0,1-0.8,1.9-1.9,1.9H283.1z"/>
</g>
</svg>