<?xml version="1.0" encoding="utf-8"?>
<!-- Generator: Adobe Illustrator 21.0.0, SVG Export Plug-In . SVG Version: 6.00 Build 0)  -->
<svg version="1.1" id="Layer_1" xmlns="http://www.w3.org/2000/svg" xmlns:xlink="http://www.w3.org/1999/xlink" x="0px" y="0px"
	 viewBox="0 0 612 792" style="enable-background:new 0 0 612 792;" xml:space="preserve">
<style type="text/css">
	.st0{clip-path:url(#SVGID_2_);fill:#2BB463;}
	.st1{clip-path:url(#SVGID_2_);fill:#272626;}
</style>
<g>
	<defs>
		<rect id="SVGID_1_" x="273" y="362.2" width="67.8" height="67.8"/>
	</defs>
	<clipPath id="SVGID_2_">
		<use xlink:href="#SVGID_1_"  style="overflow:visible;"/>
	</clipPath>
	<path class="st0" d="M322.9,372.5c-4.5-4.9-16.4-5.5-16.4-5.5v29.8"/>
	<path class="st1" d="M283.9,373.1c-5.9,5.9-9.5,14-9.5,23c0,9,3.6,17.1,9.5,23c5.9,5.9,14,9.5,23,9.5c9,0,17.1-3.6,23-9.5
		c5.9-5.9,9.5-14,9.5-23c0-9-3.6-17.1-9.5-23c-5.9-5.9-14-9.5-23-9.5C297.9,363.5,289.8,367.2,283.9,373.1 M273,396.1
		c0-18.7,15.2-33.9,33.9-33.9c18.7,0,33.9,15.2,33.9,33.9c0,18.7-15.2,33.9-33.9,33.9C288.2,430,273,414.8,273,396.1"/>
	<path class="st1" d="M286.8,376c-5.1,5.1-8.3,12.2-8.3,20.1c0,7.8,3.2,14.9,8.3,20.1c5.1,5.1,12.2,8.3,20.1,8.3
		c7.8,0,14.9-3.2,20.1-8.3c5.1-5.1,8.3-12.2,8.3-20.1c0-7.8-3.2-14.9-8.3-20.1c-5.1-5.1-12.2-8.3-20.1-8.3
		C299,367.7,292,370.9,286.8,376 M277.2,396.1c0-16.4,13.3-29.7,29.7-29.7c16.4,0,29.7,13.3,29.7,29.7c0,16.4-13.3,29.7-29.7,29.7
		C290.5,425.8,277.2,412.5,277.2,396.1"/>
	<path class="st1" d="M295.2,377.1l-1.5-2.6c-0.2-0.3-0.1-0.7,0.2-0.9c0.3-0.2,0.7-0.1,0.9,0.2l1.5,2.6c0.2,0.3,0.1,0.7-0.2,0.9
		c-0.1,0.1-0.2,0.1-0.3,0.1C295.5,377.5,295.3,377.3,295.2,377.1"/>
	<path class="st1" d="M287.3,385.5l-2.6-1.5c-0.3-0.2-0.4-0.6-0.2-0.9c0.2-0.3,0.6-0.4,0.9-0.2l2.6,1.5c0.3,0.2,0.4,0.6,0.2,0.9
		c-0.1,0.2-0.3,0.3-0.6,0.3C287.5,385.6,287.4,385.6,287.3,385.5"/>
	<path class="st1" d="M284.4,409.1c-0.2-0.3-0.1-0.7,0.2-0.9l2.6-1.5c0.3-0.2,0.7-0.1,0.9,0.2c0.2,0.3,0.1,0.7-0.2,0.9l-2.6,1.5
		c-0.1,0.1-0.2,0.1-0.3,0.1C284.8,409.4,284.5,409.3,284.4,409.1"/>
	<path class="st1" d="M293.9,418.6c-0.3-0.2-0.4-0.6-0.2-0.9l1.5-2.6c0.2-0.3,0.6-0.4,0.9-0.2c0.3,0.2,0.4,0.6,0.2,0.9l-1.5,2.6
		c-0.1,0.2-0.3,0.3-0.6,0.3C294.1,418.7,294,418.6,293.9,418.6"/>
	<path class="st1" d="M319,418.3l-1.5-2.6c-0.2-0.3-0.1-0.7,0.2-0.9c0.3-0.2,0.7-0.1,0.9,0.2l1.5,2.6c0.2,0.3,0.1,0.7-0.2,0.9
		c-0.1,0.1-0.2,0.1-0.3,0.1C319.3,418.7,319.1,418.5,319,418.3"/>
	<path class="st1" d="M328.5,409.3l-2.6-1.5c-0.3-0.2-0.4-0.6-0.2-0.9c0.2-0.3,0.6-0.4,0.9-0.2l2.6,1.5c0.3,0.2,0.4,0.6,0.2,0.9
		c-0.1,0.2-0.3,0.3-0.6,0.3C328.7,409.4,328.6,409.4,328.5,409.3"/>
	<path class="st1" d="M325.6,385.3c-0.2-0.3-0.1-0.7,0.2-0.9l2.6-1.5c0.3-0.2,0.7-0.1,0.9,0.2c0.2,0.3,0.1,0.7-0.2,0.9l-2.6,1.5
		c-0.1,0.1-0.2,0.1-0.3,0.1C326,385.6,325.7,385.5,325.6,385.3"/>
	<path class="st1" d="M317.7,377.4c-0.3-0.2-0.4-0.6-0.2-0.9l1.5-2.6c0.2-0.3,0.6-0.4,0.9-0.2c0.3,0.2,0.4,0.6,0.2,0.9l-1.5,2.6
		c-0.1,0.2-0.3,0.3-0.6,0.3C317.9,377.5,317.8,377.4,317.7,377.4"/>
	<path class="st1" d="M306.2,376.1v-5.8c0-0.4,0.3-0.7,0.7-0.7c0.4,0,0.7,0.3,0.7,0.7v5.8c0,0.4-0.3,0.7-0.7,0.7
		C306.5,376.7,306.2,376.4,306.2,376.1"/>
	<path class="st1" d="M281.1,396.8c-0.4,0-0.7-0.3-0.7-0.7c0-0.4,0.3-0.7,0.7-0.7h5.8c0.4,0,0.7,0.3,0.7,0.7c0,0.4-0.3,0.7-0.7,0.7
		H281.1z"/>
	<path class="st1" d="M306.2,421.9v-5.8c0-0.4,0.3-0.7,0.7-0.7c0.4,0,0.7,0.3,0.7,0.7v5.8c0,0.4-0.3,0.7-0.7,0.7
		C306.5,422.5,306.2,422.3,306.2,421.9"/>
	<path class="st1" d="M326.9,396.8c-0.4,0-0.7-0.3-0.7-0.7c0-0.4,0.3-0.7,0.7-0.7h5.8c0.4,0,0.7,0.3,0.7,0.7c0,0.4-0.3,0.7-0.7,0.7
		H326.9z"/>
	<path class="st1" d="M306.2,396.1v-14.3c0-0.4,0.3-0.7,0.7-0.7c0.4,0,0.7,0.3,0.7,0.7v14.3c0,0.4-0.3,0.7-0.7,0.7
		C306.5,396.8,306.2,396.5,306.2,396.1"/>
	<path class="st1" d="M306.9,396.8c-0.4,0-0.7-0.3-0.7-0.7c0-0.4,0.3-0.7,0.7-0.7h9.5c0.4,0,0.7,0.3,0.7,0.7c0,0.4-0.3,0.7-0.7,0.7
		H306.9z"/>
</g>
</svg>
