<?xml version="1.0" encoding="utf-8"?>
<!-- Generator: Adobe Illustrator 21.0.0, SVG Export Plug-In . SVG Version: 6.00 Build 0)  -->
<svg version="1.1" id="Layer_1" xmlns="http://www.w3.org/2000/svg" xmlns:xlink="http://www.w3.org/1999/xlink" x="0px" y="0px"
	 viewBox="0 0 612 792" style="enable-background:new 0 0 612 792;" xml:space="preserve">
<style type="text/css">
	.st0{clip-path:url(#SVGID_2_);}
	.st1{clip-path:url(#SVGID_4_);fill:url(#SVGID_5_);}
	.st2{clip-path:url(#SVGID_7_);fill:none;stroke:#EC008C;stroke-miterlimit:10;}
	.st3{filter:url(#Adobe_OpacityMaskFilter);}
	.st4{clip-path:url(#SVGID_7_);fill:#FFFFFF;}
	.st5{clip-path:url(#SVGID_7_);mask:url(#SVGID_8_);}
	.st6{clip-path:url(#SVGID_10_);fill:#8F1C53;}
	.st7{filter:url(#Adobe_OpacityMaskFilter_1_);}
	.st8{clip-path:url(#SVGID_10_);}
	.st9{opacity:0.75;clip-path:url(#SVGID_10_);}
</style>
<g>
	<defs>
		<rect id="SVGID_1_" x="241.5" y="360.9" width="27.4" height="27.4"/>
	</defs>
	<clipPath id="SVGID_2_">
		<use xlink:href="#SVGID_1_"  style="overflow:visible;"/>
	</clipPath>
	<g class="st0">
		<defs>
			<path id="SVGID_3_" d="M242,374.5c0,7.3,5.9,13.2,13.2,13.2c7.3,0,13.2-5.9,13.2-13.2c0-7.3-5.9-13.2-13.2-13.2
				C247.9,361.4,242,367.3,242,374.5"/>
		</defs>
		<clipPath id="SVGID_4_">
			<use xlink:href="#SVGID_3_"  style="overflow:visible;"/>
		</clipPath>
		
			<radialGradient id="SVGID_5_" cx="30.5432" cy="775.4464" r="1" gradientTransform="matrix(0 -13.7003 -13.7009 0 10879.4746 793.0005)" gradientUnits="userSpaceOnUse">
			<stop  offset="0" style="stop-color:#EC008C"/>
			<stop  offset="0.3591" style="stop-color:#EC008C"/>
			<stop  offset="0.9773" style="stop-color:#9B1A5A"/>
			<stop  offset="1" style="stop-color:#9B1A5A"/>
		</radialGradient>
		<rect x="242" y="361.4" class="st1" width="26.4" height="26.4"/>
	</g>
	<g class="st0">
		<defs>
			<rect id="SVGID_6_" x="241.5" y="360.9" width="27.4" height="27.4"/>
		</defs>
		<clipPath id="SVGID_7_">
			<use xlink:href="#SVGID_6_"  style="overflow:visible;"/>
		</clipPath>
		<path class="st2" d="M268.4,374.5c0-7.3-5.9-13.2-13.2-13.2s-13.2,5.9-13.2,13.2c0,7.3,5.9,13.2,13.2,13.2
			S268.4,381.8,268.4,374.5"/>
		<defs>
			<filter id="Adobe_OpacityMaskFilter" filterUnits="userSpaceOnUse" x="237.5" y="363.4" width="34" height="19.2">
				<feColorMatrix  type="matrix" values="1 0 0 0 0  0 1 0 0 0  0 0 1 0 0  0 0 0 1 0"/>
			</filter>
		</defs>
		<mask maskUnits="userSpaceOnUse" x="237.5" y="363.4" width="34" height="19.2" id="SVGID_8_">
			<g class="st3">
				<path class="st4" d="M259.6,370.8l-6.1,6.1l1.4,1.4v-2h-0.1v2l1.4-1.4l-6.1-6.1c-0.8-0.8-2-0.8-2.8,0c-0.8,0.8-0.8,2,0,2.8
					l6.1,6.1c0.4,0.4,0.9,0.6,1.4,0.6h0.1c0.5,0,1-0.2,1.4-0.6l6.1-6.1c0.8-0.8,0.8-2,0-2.8C261.7,370,260.4,370,259.6,370.8"/>
			</g>
		</mask>
		<g class="st5">
			<g>
				<defs>
					<rect id="SVGID_9_" x="237.5" y="363.4" width="34" height="18"/>
				</defs>
				<clipPath id="SVGID_10_">
					<use xlink:href="#SVGID_9_"  style="overflow:visible;"/>
				</clipPath>
				<path class="st6" d="M259.6,370.8l-6.1,6.1l1.4,1.4v-2h-0.1v2l1.4-1.4l-6.1-6.1c-0.8-0.8-2-0.8-2.8,0c-0.8,0.8-0.8,2,0,2.8
					l6.1,6.1c0.4,0.4,0.9,0.6,1.4,0.6h0.1c0.5,0,1-0.2,1.4-0.6l6.1-6.1c0.8-0.8,0.8-2,0-2.8C261.7,370,260.4,370,259.6,370.8"/>
				<defs>
					<filter id="Adobe_OpacityMaskFilter_1_" filterUnits="userSpaceOnUse" x="237.5" y="363.4" width="33.6" height="19.2">
						<feColorMatrix  type="matrix" values="1 0 0 0 0  0 1 0 0 0  0 0 1 0 0  0 0 0 1 0"/>
					</filter>
				</defs>
				<mask maskUnits="userSpaceOnUse" x="237.5" y="363.4" width="33.6" height="19.2" id="SVGID_8_">
					<g class="st7">
						<g>
							<defs>
								<rect id="SVGID_11_" x="237.5" y="363.4" width="33.6" height="19.2"/>
							</defs>
							<clipPath id="SVGID_12_" class="st8">
								<use xlink:href="#SVGID_11_"  style="overflow:visible;"/>
							</clipPath>
							<g style="clip-path:url(#SVGID_12_);">
								
									<image style="overflow:visible;" width="70" height="40" xlink:href="7FDCE748.jpg"  transform="matrix(0.48 0 0 0.48 237.4842 363.443)">
								</image>
							</g>
						</g>
					</g>
				</mask>
				<rect x="237.5" y="363.4" class="st9" width="33.6" height="19.2"/>
			</g>
		</g>
	</g>
</g>
</svg>
