<?xml version="1.0" encoding="utf-8"?>
<!-- Generator: Adobe Illustrator 21.0.0, SVG Export Plug-In . SVG Version: 6.00 Build 0)  -->
<svg version="1.1" id="Layer_1" xmlns="http://www.w3.org/2000/svg" xmlns:xlink="http://www.w3.org/1999/xlink" x="0px" y="0px"
	 viewBox="0 0 612 792" style="enable-background:new 0 0 612 792;" xml:space="preserve">
<style type="text/css">
	.st0{clip-path:url(#SVGID_2_);fill:#272626;}
	.st1{clip-path:url(#SVGID_2_);fill:#2BB463;}
</style>
<g>
	<defs>
		<rect id="SVGID_1_" x="274" y="371.5" width="64.8" height="49.5"/>
	</defs>
	<clipPath id="SVGID_2_">
		<use xlink:href="#SVGID_1_"  style="overflow:visible;"/>
	</clipPath>
	<path class="st0" d="M275.3,419.7h62.3v-46.9h-62.3V419.7z M274.6,421c-0.2,0-0.3-0.1-0.4-0.2c-0.1-0.1-0.2-0.3-0.2-0.4v-48.2
		c0-0.2,0.1-0.3,0.2-0.4c0.1-0.1,0.3-0.2,0.4-0.2h63.5c0.2,0,0.3,0.1,0.4,0.2c0.1,0.1,0.2,0.3,0.2,0.4v48.2c0,0.2-0.1,0.3-0.2,0.4
		c-0.1,0.1-0.3,0.2-0.4,0.2H274.6z"/>
	<path class="st0" d="M278.4,416.6h56.1v-40.8h-56.1V416.6z M277.7,417.9c-0.2,0-0.3-0.1-0.4-0.2c-0.1-0.1-0.2-0.3-0.2-0.4v-42
		c0-0.2,0.1-0.3,0.2-0.4c0.1-0.1,0.3-0.2,0.4-0.2h57.4c0.2,0,0.3,0.1,0.4,0.2c0.1,0.1,0.2,0.3,0.2,0.4v42c0,0.2-0.1,0.3-0.2,0.4
		c-0.1,0.1-0.3,0.2-0.4,0.2H277.7z"/>
	<path class="st1" d="M285.2,392.9c0,0,0.1,0,0.3,0.1c0.2,0,0.5,0,0.8,0c0.3,0,0.7,0,1,0c0.4,0,0.7,0,1.1,0c0.3,0,0.6,0,0.9,0
		c0.3,0,0.4,0,0.5,0c0.3,0,0.6,0,0.9,0c0.3,0,0.6,0,0.8,0c0.2,0,0.4,0,0.6-0.1c0.1,0,0.2-0.1,0.2-0.1c0-0.7-0.1-1.3-0.1-2
		c-0.1-0.6-0.2-1.2-0.4-1.7c-0.2-0.5-0.5-0.9-0.8-1.2c-0.4-0.3-0.9-0.4-1.5-0.4c-0.4,0-0.9,0.1-1.2,0.2c-0.4,0.2-0.7,0.4-1.1,0.6
		c-0.3,0.3-0.6,0.6-0.9,0.9c-0.3,0.4-0.5,0.7-0.6,1.1c-0.2,0.4-0.3,0.8-0.4,1.2C285.2,392.1,285.2,392.5,285.2,392.9 M292,401.7
		c0-0.6,0-1.1,0.1-1.7c0-0.6,0.1-1.1,0.1-1.7c0.1-0.5,0.1-1.1,0.1-1.7c0-0.6,0.1-1.1,0.1-1.7h-7.2c0,1.2-0.1,2.4-0.4,3.6
		c-0.2,1.2-0.5,2.4-0.8,3.6c0,0.1-0.1,0.2-0.1,0.3c-0.1,0.1-0.1,0.2-0.2,0.3c-0.1,0.1-0.2,0.2-0.3,0.2c-0.1,0.1-0.2,0.1-0.3,0.1
		c-0.1,0-0.2,0-0.3-0.1c-0.1-0.1-0.2-0.2-0.3-0.3c-0.1-0.1-0.1-0.2-0.2-0.4c0-0.1-0.1-0.3-0.1-0.4v-0.3c0.1-0.3,0.2-0.7,0.3-1
		c0.1-0.4,0.2-0.8,0.3-1.2c0.1-0.4,0.2-0.8,0.3-1.2c0.1-0.4,0.1-0.7,0.2-1.1l0.5-6c0-0.5,0.1-0.9,0.3-1.4c0.2-0.5,0.4-0.9,0.7-1.3
		c0.3-0.4,0.6-0.8,0.9-1.2c0.3-0.4,0.7-0.7,1.1-0.9c0.4-0.3,0.8-0.5,1.2-0.6c0.4-0.2,0.9-0.2,1.3-0.2c0.8,0,1.4,0.1,2,0.4
		c0.5,0.3,1,0.7,1.3,1.1c0.4,0.5,0.6,1,0.8,1.6c0.2,0.6,0.4,1.3,0.5,2c0.1,0.7,0.2,1.4,0.2,2.1c0,0.7,0,1.3,0,2v1.5
		c0,0.1,0,0.4,0,0.7c0,0.3,0,0.7-0.1,1c0,0.4-0.1,0.8-0.1,1.2c0,0.4-0.1,0.8-0.1,1.2c0,0.4-0.1,0.7-0.1,1c0,0.3,0,0.5-0.1,0.7
		c0,0.2-0.1,0.4-0.3,0.5c-0.2,0.2-0.3,0.2-0.6,0.2c-0.2,0-0.4-0.1-0.5-0.2c-0.2-0.1-0.3-0.3-0.3-0.5V401.7z"/>
	<path class="st1" d="M304.1,385.1c0,0.1,0,0.3,0,0.5c0,0.2,0,0.5,0,0.8c0,0.3,0,0.6-0.1,0.9c0,0.3,0,0.6-0.1,0.9c0,0.3,0,0.6,0,0.8
		c0,0.2,0,0.4,0,0.5v0.1v0.1c0.1,0,0.2,0,0.5-0.1c0.2-0.1,0.5-0.1,0.8-0.2c0.3-0.1,0.7-0.2,1-0.3c0.4-0.1,0.8-0.3,1.2-0.4
		c0.4-0.1,0.8-0.3,1.1-0.5c0.4-0.2,0.7-0.3,1-0.5c0.3-0.2,0.5-0.3,0.7-0.5c0.2-0.2,0.3-0.4,0.3-0.5c0-0.3-0.1-0.5-0.2-0.7
		c-0.1-0.2-0.3-0.4-0.6-0.5c-0.2-0.1-0.5-0.2-0.8-0.3c-0.3-0.1-0.6-0.1-1-0.1c-0.3,0-0.7,0-1,0c-0.3,0-0.6,0-0.9,0
		c-0.3,0-0.5,0-0.7,0.1c-0.2,0-0.3,0-0.3,0H304.1z M302.2,398.7c0,0,0.1,0,0.2,0c0.1,0,0.2,0,0.4,0c0.1,0,0.3,0,0.4,0
		c0.1,0,0.2,0,0.3,0c0.2,0,0.5,0,0.9,0c0.4,0,0.8,0,1.3-0.1c0.5,0,1-0.1,1.5-0.2c0.5-0.1,1-0.2,1.4-0.4c0.4-0.2,0.8-0.4,1-0.7
		c0.3-0.3,0.4-0.6,0.4-1.1c0-0.4-0.1-0.7-0.2-1.1c-0.1-0.3-0.3-0.6-0.6-0.9c-0.2-0.3-0.5-0.6-0.9-0.8c-0.3-0.2-0.6-0.5-1-0.7
		c-0.3-0.2-0.7-0.4-1-0.5c-0.3-0.1-0.6-0.3-0.9-0.4c-0.1,0-0.3-0.1-0.5-0.1c-0.2-0.1-0.4-0.1-0.6-0.2c-0.2-0.1-0.4-0.1-0.5-0.1
		c-0.1,0-0.2,0-0.2,0l-0.1,0.1c-0.1,0.5-0.2,1.1-0.3,1.7c-0.1,0.6-0.2,1.2-0.4,1.8c-0.1,0.6-0.3,1.2-0.4,1.8
		c-0.2,0.6-0.3,1.1-0.5,1.7L302.2,398.7z M300.3,400.4c-0.2-0.1-0.3-0.2-0.4-0.4c-0.1-0.2-0.1-0.4-0.1-0.6c0-0.2,0-0.5,0.1-0.7
		c0.1-0.3,0.2-0.6,0.3-0.8c0.1-0.3,0.2-0.6,0.3-0.8c0.1-0.3,0.2-0.5,0.2-0.6c0.3-0.9,0.5-1.8,0.7-2.7c0.2-0.9,0.3-1.9,0.4-2.8
		c0.1-0.9,0.2-1.9,0.2-2.8c0.1-0.9,0.1-1.9,0.1-2.8c-0.3,0-0.5,0-0.8,0.1c-0.2,0.1-0.5,0.1-0.7,0.2c-0.2,0.1-0.5,0.1-0.7,0.2
		c-0.2,0.1-0.5,0.1-0.7,0.1c-0.3,0-0.5-0.1-0.7-0.2c-0.2-0.2-0.3-0.4-0.3-0.7c0-0.3,0.1-0.5,0.4-0.7c0.3-0.2,0.6-0.4,1-0.5
		c0.4-0.1,0.9-0.2,1.4-0.3c0.5-0.1,1-0.1,1.5-0.1c0.5,0,0.9,0,1.3,0h0.9c1.4,0,2.5,0.1,3.4,0.3c0.9,0.2,1.6,0.5,2.1,0.8
		c0.5,0.3,0.9,0.7,1.1,1.2c0.2,0.5,0.3,1,0.3,1.5c0,0.5-0.1,0.8-0.3,1.2c-0.2,0.3-0.5,0.6-0.8,0.8c-0.3,0.2-0.7,0.4-1.2,0.5
		c-0.4,0.1-0.9,0.3-1.3,0.4c-0.4,0.1-0.8,0.2-1.2,0.4c-0.4,0.1-0.7,0.3-1,0.4c0.4,0.2,0.8,0.3,1.3,0.5c0.4,0.2,0.9,0.4,1.3,0.6
		c0.4,0.2,0.8,0.5,1.2,0.8c0.4,0.3,0.7,0.6,1,1c0.3,0.4,0.5,0.8,0.7,1.2c0.2,0.4,0.3,0.9,0.3,1.4c0,0.7-0.1,1.3-0.4,1.8
		c-0.3,0.5-0.6,0.9-1.1,1.2c-0.4,0.3-0.9,0.6-1.5,0.8c-0.6,0.2-1.1,0.3-1.7,0.4c-0.6,0.1-1.2,0.2-1.8,0.2c-0.6,0-1.1,0-1.6,0
		c-0.3,0-0.6,0-0.9,0c-0.2,0-0.5,0-0.8,0c-0.3,0-0.5,0-0.8-0.1C301.1,400.5,300.7,400.5,300.3,400.4"/>
	<path class="st1" d="M317,394.2c0-1.3,0.2-2.4,0.5-3.5c0.3-1.1,0.8-2,1.4-2.8c0.6-0.8,1.4-1.4,2.4-1.8c0.9-0.4,2-0.6,3.3-0.6
		c0.1,0,0.3,0,0.5,0c0.2,0,0.5,0,0.8,0.1c0.3,0,0.6,0.1,1,0.1c0.4,0,0.7,0.1,1.1,0.2c0.4,0.1,0.7,0.2,1,0.3c0.3,0.1,0.6,0.2,0.9,0.4
		c0.3,0.1,0.5,0.3,0.6,0.5c0.2,0.2,0.2,0.4,0.2,0.6c0,0.3-0.1,0.5-0.3,0.7c-0.2,0.2-0.4,0.2-0.6,0.2h-0.3c-0.8-0.3-1.7-0.5-2.5-0.7
		c-0.8-0.2-1.7-0.3-2.5-0.3c-1,0-1.8,0.2-2.5,0.5c-0.7,0.3-1.3,0.8-1.8,1.4c-0.5,0.6-0.8,1.3-1.1,2.1c-0.2,0.8-0.3,1.7-0.3,2.7
		c0,0.6,0,1.2,0.1,1.7c0.1,0.6,0.2,1.1,0.3,1.7c0.1,0.5,0.3,1,0.6,1.5c0.2,0.5,0.6,0.9,0.9,1.2c0.4,0.3,0.8,0.6,1.3,0.8
		c0.5,0.2,1.1,0.3,1.7,0.3c0.8,0,1.7-0.1,2.5-0.4c0.8-0.2,1.6-0.6,2.4-1c0.1-0.1,0.2-0.1,0.3-0.2c0.1-0.1,0.3-0.2,0.4-0.3
		c0.1-0.1,0.3-0.2,0.4-0.3c0.1-0.1,0.3-0.1,0.4-0.1c0.3,0,0.5,0.1,0.7,0.3c0.2,0.2,0.2,0.4,0.2,0.7c0,0.3-0.1,0.7-0.4,1
		c-0.3,0.3-0.7,0.6-1.1,0.8c-0.5,0.2-1,0.5-1.5,0.7c-0.6,0.2-1.1,0.3-1.7,0.5c-0.5,0.1-1,0.2-1.5,0.3c-0.5,0.1-0.8,0.1-1.1,0.1
		c-0.8,0-1.5-0.1-2.2-0.3c-0.7-0.2-1.2-0.5-1.7-0.9c-0.5-0.4-0.9-0.9-1.3-1.4c-0.4-0.6-0.7-1.2-0.9-1.8c-0.2-0.7-0.4-1.4-0.5-2.1
		C317.1,395.7,317,395,317,394.2"/>
	<path class="st1" d="M281.9,411.2c-0.3-0.2-0.3-0.6-0.1-0.9c0.1-0.1,4.3-4.7,17.7-4.7c2,0,4.2,0.1,6.6,0.3
		c6.2,0.6,10.4,0.8,13.5,0.8c5.2,0,7.1-0.5,9.5-0.5c0.5,0,1,0,1.5,0.1c0.3,0,0.6,0.3,0.6,0.7c0,0.3-0.3,0.6-0.7,0.6
		c-0.5,0-0.9-0.1-1.4-0.1c-2.2,0-4.3,0.5-9.5,0.5c-3.2,0-7.4-0.2-13.6-0.8c-2.4-0.2-4.5-0.3-6.5-0.3c-12.3,0-16.3,3.9-16.7,4.3
		c0,0,0,0,0,0c-0.1,0.1-0.3,0.2-0.5,0.2C282.1,411.3,282,411.3,281.9,411.2"/>
</g>
</svg>
