<?xml version="1.0" encoding="utf-8"?>
<!-- Generator: Adobe Illustrator 21.0.0, SVG Export Plug-In . SVG Version: 6.00 Build 0)  -->
<svg version="1.1" id="Layer_1" xmlns="http://www.w3.org/2000/svg" xmlns:xlink="http://www.w3.org/1999/xlink" x="0px" y="0px"
	 viewBox="0 0 595.3 108.8" style="enable-background:new 0 0 595.3 108.8;" xml:space="preserve">
<style type="text/css">
	.st0{fill:#EC008C;}
	.st1{opacity:0.48;fill:#F1F2F2;fill-opacity:0.37;enable-background:new    ;}
	.st2{fill:none;stroke:#000000;stroke-width:0.25;stroke-miterlimit:10;}
	.st3{opacity:9.000000e-02;fill:none;stroke:#FFFFFF;stroke-width:0.25;stroke-miterlimit:10;enable-background:new    ;}
	.st4{fill:#301F2F;}
	.st5{opacity:0.2;fill:#FFFFFF;enable-background:new    ;}
	.st6{fill:none;}
	.st7{fill:#FFFFFF;}
	.st8{font-family:'Lato-Regular';}
	.st9{font-size:65.9612px;}
</style>
<g>
	<path class="st0" d="M540.9,108.8H54.4C24.2,108.8,0,84.1,0,54.4l0,0C0,24.2,24.7,0,54.4,0h486.5c30.2,0,54.4,24.7,54.4,54.4l0,0
		C595.3,84.1,571.1,108.8,540.9,108.8z"/>
	<path class="st1" d="M3.3,53.9v-1.1c0-29.7,23.1-47.3,52.8-47.3h482.6c29.7,0,53.9,18.7,53.9,48.4l0,0"/>
	<line class="st2" x1="136.3" y1="2.7" x2="136.3" y2="105"/>
	<line class="st3" x1="136.9" y1="2.7" x2="136.9" y2="105"/>
	<path class="st4" d="M105.5,46.7c6.6,3.8,8.8,11,0,15.9S77,80.8,67.1,85.7s-11-7.1-11-7.1s0-38.5,0-47.8s9.3-8.2,11.5-6.6
		C69.8,25.3,98.9,42.9,105.5,46.7z"/>
	<path class="st5" d="M57.2,30.2c-0.5-4.9,4.4-8.8,9.9-5.5c4.9,2.7,39.6,23.6,39.6,23.6c0.5-0.5,3.8,4.4,3.3,4.9H57.2
		C57.2,53.9,57.2,35.2,57.2,30.2z"/>
	<g>
		<rect x="207.8" y="25.3" class="st6" width="349" height="73.1"/>
		<text transform="matrix(1 0 0 1 207.5039 73.9305)" class="st7 st8 st9">Launch</text>
	</g>
</g>
</svg>
