<?xml version="1.0" encoding="utf-8"?>
<!-- Generator: Adobe Illustrator 21.0.0, SVG Export Plug-In . SVG Version: 6.00 Build 0)  -->
<svg version="1.1" id="Layer_1" xmlns="http://www.w3.org/2000/svg" xmlns:xlink="http://www.w3.org/1999/xlink" x="0px" y="0px"
	 viewBox="0 0 587.1 587.1" style="enable-background:new 0 0 587.1 587.1;" xml:space="preserve">
<style type="text/css">
	.st0{clip-path:url(#SVGID_2_);fill:url(#SVGID_3_);}
	.st1{fill:none;stroke:#EC008C;stroke-miterlimit:10;}
	.st2{filter:url(#Adobe_OpacityMaskFilter);}
	.st3{fill:url(#SVGID_5_);}
	.st4{mask:url(#SVGID_4_);}
	.st5{fill:#E66EAA;}
	.st6{fill:#592154;}
	.st7{font-family:'Lato-Black';}
	.st8{font-size:120.5376px;}
	.st9{letter-spacing:-8;}
	.st10{letter-spacing:-1;}
</style>
<g>
	<g>
		<g>
			<defs>
				<path id="SVGID_1_" d="M11.5,293.5c0,155.8,126.3,282.1,282.1,282.1s282.1-126.3,282.1-282.1c0-155.8-126.3-282-282.1-282
					S11.5,137.8,11.5,293.5"/>
			</defs>
			<clipPath id="SVGID_2_">
				<use xlink:href="#SVGID_1_"  style="overflow:visible;"/>
			</clipPath>
			
				<radialGradient id="SVGID_3_" cx="-10.6278" cy="601.5913" r="10.0449" gradientTransform="matrix(0 -28.5803 -28.5815 0 17487.9414 -10.191)" gradientUnits="userSpaceOnUse">
				<stop  offset="0" style="stop-color:#EC008C"/>
				<stop  offset="0.3591" style="stop-color:#EC008C"/>
				<stop  offset="0.9773" style="stop-color:#9B1A5A"/>
				<stop  offset="1" style="stop-color:#9B1A5A"/>
			</radialGradient>
			<rect x="11.5" y="11.5" class="st0" width="564.1" height="564.1"/>
		</g>
		<g>
			<path class="st1" d="M575.6,293.5c0-155.8-126.3-282-282.1-282c-155.8,0-282.1,126.3-282.1,282c0,155.8,126.3,282.1,282.1,282.1
				C449.3,575.6,575.6,449.3,575.6,293.5"/>
			<defs>
				<filter id="Adobe_OpacityMaskFilter" filterUnits="userSpaceOnUse" x="45.1" y="34.2" width="497.3" height="497.3">
					<feFlood  style="flood-color:white;flood-opacity:1" result="back"/>
					<feBlend  in="SourceGraphic" in2="back" mode="normal"/>
				</filter>
			</defs>
			<mask maskUnits="userSpaceOnUse" x="45.1" y="34.2" width="497.3" height="497.3" id="SVGID_4_">
				<g class="st2">
					
						<linearGradient id="SVGID_5_" gradientUnits="userSpaceOnUse" x1="-21.1094" y1="595.6972" x2="-11.0646" y2="595.6972" gradientTransform="matrix(0 51.385 51.385 0 -30325.9238 1109.4764)">
						<stop  offset="0" style="stop-color:#FFFFFF"/>
						<stop  offset="3.685154e-02" style="stop-color:#CFCFCF"/>
						<stop  offset="7.562275e-02" style="stop-color:#A4A4A4"/>
						<stop  offset="0.1187" style="stop-color:#7C7C7C"/>
						<stop  offset="0.1653" style="stop-color:#5B5B5B"/>
						<stop  offset="0.216" style="stop-color:#3E3E3E"/>
						<stop  offset="0.2727" style="stop-color:#272727"/>
						<stop  offset="0.3378" style="stop-color:#161616"/>
						<stop  offset="0.4163" style="stop-color:#090909"/>
						<stop  offset="0.5223" style="stop-color:#020202"/>
						<stop  offset="0.775" style="stop-color:#000000"/>
						<stop  offset="0.9682" style="stop-color:#000000"/>
						<stop  offset="1" style="stop-color:#000000"/>
					</linearGradient>
					<rect x="-3944.3" y="-3726.6" class="st3" width="8456.6" height="6009.6"/>
				</g>
			</mask>
			<g class="st4">
				<g>
					<path class="st5" d="M45.1,282.9c0,137.3,111.3,248.6,248.7,248.6s248.7-111.3,248.7-248.6S431.1,34.2,293.7,34.2
						S45.1,145.5,45.1,282.9"/>
				</g>
			</g>
		</g>
		<text transform="matrix(1 0 0 1 110.8514 343.3781)"><tspan x="0" y="0" class="st6 st7 st8">S</tspan><tspan x="66.8" y="0" class="st6 st7 st8 st9">T</tspan><tspan x="131.7" y="0" class="st6 st7 st8">A</tspan><tspan x="217.4" y="0" class="st6 st7 st8 st10">R</tspan><tspan x="295" y="0" class="st6 st7 st8">T</tspan></text>
	</g>
</g>
</svg>
